<mxfile host="app.diagrams.net" modified="2023-05-10T06:55:35.537Z" agent="Mozilla/5.0 (Windows NT 10.0; Win64; x64) AppleWebKit/537.36 (KHTML, like Gecko) Chrome/113.0.0.0 Safari/537.36" etag="NoPjBUmRBLoEWMHbjDmU" version="21.2.9" type="device">
  <diagram name="Page-1" id="90GtNqOT25x1JlT9CX7_">
    <mxGraphModel dx="1167" dy="723" grid="1" gridSize="10" guides="1" tooltips="1" connect="1" arrows="1" fold="1" page="1" pageScale="1" pageWidth="1200" pageHeight="1600" math="0" shadow="0">
      <root>
        <mxCell id="0" />
        <mxCell id="1" parent="0" />
        <mxCell id="2LjjfEzarAYx0yll2Rhc-1" style="edgeStyle=orthogonalEdgeStyle;rounded=0;orthogonalLoop=1;jettySize=auto;html=1;entryX=0.5;entryY=0;entryDx=0;entryDy=0;" edge="1" parent="1" source="2LjjfEzarAYx0yll2Rhc-2" target="2LjjfEzarAYx0yll2Rhc-4">
          <mxGeometry relative="1" as="geometry" />
        </mxCell>
        <mxCell id="2LjjfEzarAYx0yll2Rhc-2" value="&lt;b style=&quot;font-size: 20px;&quot;&gt;Input&amp;nbsp;&lt;/b&gt;&lt;br style=&quot;font-size: 20px;&quot;&gt;187x1" style="rounded=1;whiteSpace=wrap;html=1;fontSize=20;rotation=-90;" vertex="1" parent="1">
          <mxGeometry x="180" y="280" width="220" height="60" as="geometry" />
        </mxCell>
        <mxCell id="2LjjfEzarAYx0yll2Rhc-3" style="edgeStyle=orthogonalEdgeStyle;rounded=0;orthogonalLoop=1;jettySize=auto;html=1;" edge="1" parent="1" source="2LjjfEzarAYx0yll2Rhc-4" target="2LjjfEzarAYx0yll2Rhc-7">
          <mxGeometry relative="1" as="geometry" />
        </mxCell>
        <mxCell id="2LjjfEzarAYx0yll2Rhc-4" value="&lt;b&gt;Conv1D&amp;nbsp;&lt;br&gt;&lt;/b&gt;" style="rounded=1;whiteSpace=wrap;html=1;fontSize=20;rotation=-90;" vertex="1" parent="1">
          <mxGeometry x="270" y="280" width="220" height="60" as="geometry" />
        </mxCell>
        <mxCell id="2LjjfEzarAYx0yll2Rhc-5" value="&lt;b&gt;&lt;font style=&quot;font-size: 21px;&quot;&gt;3x&lt;/font&gt;&lt;/b&gt;" style="text;html=1;align=center;verticalAlign=middle;resizable=0;points=[];autosize=1;strokeColor=none;fillColor=none;rotation=-90;" vertex="1" parent="1">
          <mxGeometry x="355" y="420" width="50" height="40" as="geometry" />
        </mxCell>
        <mxCell id="2LjjfEzarAYx0yll2Rhc-6" style="edgeStyle=orthogonalEdgeStyle;rounded=0;orthogonalLoop=1;jettySize=auto;html=1;entryX=0;entryY=0.5;entryDx=0;entryDy=0;" edge="1" parent="1" source="2LjjfEzarAYx0yll2Rhc-7" target="2LjjfEzarAYx0yll2Rhc-9">
          <mxGeometry relative="1" as="geometry" />
        </mxCell>
        <mxCell id="2LjjfEzarAYx0yll2Rhc-7" value="&lt;b&gt;Max-pooling&lt;br&gt;&lt;/b&gt;" style="rounded=1;whiteSpace=wrap;html=1;fontSize=20;rotation=-90;" vertex="1" parent="1">
          <mxGeometry x="360" y="280" width="220" height="60" as="geometry" />
        </mxCell>
        <mxCell id="2LjjfEzarAYx0yll2Rhc-65" style="edgeStyle=orthogonalEdgeStyle;rounded=0;orthogonalLoop=1;jettySize=auto;html=1;entryX=0.5;entryY=0;entryDx=0;entryDy=0;" edge="1" parent="1" source="2LjjfEzarAYx0yll2Rhc-9" target="2LjjfEzarAYx0yll2Rhc-31">
          <mxGeometry relative="1" as="geometry" />
        </mxCell>
        <mxCell id="2LjjfEzarAYx0yll2Rhc-9" value="" style="rounded=1;whiteSpace=wrap;html=1;fillColor=#CCCCCC;container=0;" vertex="1" parent="1">
          <mxGeometry x="540" y="200" width="480.00000000000006" height="220" as="geometry" />
        </mxCell>
        <mxCell id="2LjjfEzarAYx0yll2Rhc-10" value="" style="whiteSpace=wrap;html=1;aspect=fixed;container=0;" vertex="1" parent="1">
          <mxGeometry x="575.1219512195122" y="297.05882352941177" width="46.82926829268293" height="46.82926829268293" as="geometry" />
        </mxCell>
        <mxCell id="2LjjfEzarAYx0yll2Rhc-11" value="" style="whiteSpace=wrap;html=1;aspect=fixed;container=0;" vertex="1" parent="1">
          <mxGeometry x="586.829268292683" y="310" width="46.82926829268293" height="46.82926829268293" as="geometry" />
        </mxCell>
        <mxCell id="2LjjfEzarAYx0yll2Rhc-12" value="" style="whiteSpace=wrap;html=1;aspect=fixed;container=0;" vertex="1" parent="1">
          <mxGeometry x="598.5365853658536" y="322.94117647058823" width="46.82926829268293" height="46.82926829268293" as="geometry" />
        </mxCell>
        <mxCell id="2LjjfEzarAYx0yll2Rhc-13" value="" style="endArrow=classic;html=1;rounded=0;entryX=0;entryY=0.5;entryDx=0;entryDy=0;" edge="1" parent="1" target="2LjjfEzarAYx0yll2Rhc-29">
          <mxGeometry width="50" height="50" relative="1" as="geometry">
            <mxPoint x="610.2439024390244" y="297.05882352941177" as="sourcePoint" />
            <mxPoint x="645.3658536585366" y="238.82352941176487" as="targetPoint" />
          </mxGeometry>
        </mxCell>
        <mxCell id="2LjjfEzarAYx0yll2Rhc-14" value="&lt;font style=&quot;font-size: 12px;&quot;&gt;Squeeze&lt;/font&gt;" style="text;html=1;align=center;verticalAlign=middle;resizable=0;points=[];autosize=1;strokeColor=none;fillColor=none;rotation=-55;fontSize=10;fontStyle=1;container=0;" vertex="1" parent="1">
          <mxGeometry x="569.2682926829268" y="232.35294117647058" width="70" height="30" as="geometry" />
        </mxCell>
        <mxCell id="2LjjfEzarAYx0yll2Rhc-15" style="edgeStyle=orthogonalEdgeStyle;rounded=0;orthogonalLoop=1;jettySize=auto;html=1;entryX=0;entryY=0.5;entryDx=0;entryDy=0;" edge="1" parent="1" source="2LjjfEzarAYx0yll2Rhc-27" target="2LjjfEzarAYx0yll2Rhc-26">
          <mxGeometry relative="1" as="geometry" />
        </mxCell>
        <mxCell id="2LjjfEzarAYx0yll2Rhc-16" value="&lt;font style=&quot;font-size: 12px;&quot;&gt;Excitation&lt;/font&gt;" style="text;html=1;align=center;verticalAlign=middle;resizable=0;points=[];autosize=1;strokeColor=none;fillColor=none;fontSize=10;fontStyle=1;container=0;" vertex="1" parent="1">
          <mxGeometry x="709.7443902439024" y="200" width="80" height="30" as="geometry" />
        </mxCell>
        <mxCell id="2LjjfEzarAYx0yll2Rhc-17" value="" style="whiteSpace=wrap;html=1;aspect=fixed;fillColor=#B3FF66;container=0;" vertex="1" parent="1">
          <mxGeometry x="926.3414634146342" y="297.05882352941177" width="46.82926829268293" height="46.82926829268293" as="geometry" />
        </mxCell>
        <mxCell id="2LjjfEzarAYx0yll2Rhc-18" value="" style="whiteSpace=wrap;html=1;aspect=fixed;fillColor=#FFFF66;container=0;" vertex="1" parent="1">
          <mxGeometry x="938.0487804878048" y="310" width="46.82926829268293" height="46.82926829268293" as="geometry" />
        </mxCell>
        <mxCell id="2LjjfEzarAYx0yll2Rhc-19" value="" style="whiteSpace=wrap;html=1;aspect=fixed;fillColor=#FFB366;container=0;" vertex="1" parent="1">
          <mxGeometry x="949.7560975609756" y="322.94117647058823" width="46.82926829268293" height="46.82926829268293" as="geometry" />
        </mxCell>
        <mxCell id="2LjjfEzarAYx0yll2Rhc-20" style="edgeStyle=orthogonalEdgeStyle;rounded=0;orthogonalLoop=1;jettySize=auto;html=1;" edge="1" parent="1" source="2LjjfEzarAYx0yll2Rhc-12" target="2LjjfEzarAYx0yll2Rhc-17">
          <mxGeometry relative="1" as="geometry">
            <Array as="points">
              <mxPoint x="820.9756097560976" y="342.3529411764706" />
              <mxPoint x="820.9756097560976" y="342.3529411764706" />
            </Array>
          </mxGeometry>
        </mxCell>
        <mxCell id="2LjjfEzarAYx0yll2Rhc-21" style="edgeStyle=orthogonalEdgeStyle;rounded=0;orthogonalLoop=1;jettySize=auto;html=1;" edge="1" parent="1" source="2LjjfEzarAYx0yll2Rhc-24" target="2LjjfEzarAYx0yll2Rhc-17">
          <mxGeometry relative="1" as="geometry" />
        </mxCell>
        <mxCell id="2LjjfEzarAYx0yll2Rhc-22" value="Scale" style="text;html=1;align=center;verticalAlign=middle;resizable=0;points=[];autosize=1;strokeColor=none;fillColor=none;fontSize=12;fontStyle=1;container=0;" vertex="1" parent="1">
          <mxGeometry x="750.7317073170732" y="297.05882352941177" width="50" height="30" as="geometry" />
        </mxCell>
        <mxCell id="2LjjfEzarAYx0yll2Rhc-23" value="Adaptive Feature Recalibration" style="text;html=1;align=center;verticalAlign=middle;resizable=0;points=[];autosize=1;strokeColor=none;fillColor=none;fontStyle=1;fontSize=16;container=0;" vertex="1" parent="1">
          <mxGeometry x="645.7348780487804" y="374.70588235294116" width="260" height="30" as="geometry" />
        </mxCell>
        <mxCell id="2LjjfEzarAYx0yll2Rhc-24" value="" style="whiteSpace=wrap;html=1;aspect=fixed;container=0;fillColor=#FFB366;" vertex="1" parent="1">
          <mxGeometry x="856.089756097561" y="225.88235294117646" width="23.414634146341466" height="23.414634146341466" as="geometry" />
        </mxCell>
        <mxCell id="2LjjfEzarAYx0yll2Rhc-25" value="" style="whiteSpace=wrap;html=1;aspect=fixed;container=0;fillColor=#FFFF33;" vertex="1" parent="1">
          <mxGeometry x="832.679024390244" y="225.88235294117646" width="23.414634146341466" height="23.414634146341466" as="geometry" />
        </mxCell>
        <mxCell id="2LjjfEzarAYx0yll2Rhc-26" value="" style="whiteSpace=wrap;html=1;aspect=fixed;container=0;fillColor=#B3FF66;" vertex="1" parent="1">
          <mxGeometry x="809.2682926829268" y="225.88235294117646" width="23.414634146341466" height="23.414634146341466" as="geometry" />
        </mxCell>
        <mxCell id="2LjjfEzarAYx0yll2Rhc-27" value="" style="whiteSpace=wrap;html=1;aspect=fixed;container=0;" vertex="1" parent="1">
          <mxGeometry x="692.1873170731708" y="225.88235294117646" width="23.414634146341466" height="23.414634146341466" as="geometry" />
        </mxCell>
        <mxCell id="2LjjfEzarAYx0yll2Rhc-28" value="" style="whiteSpace=wrap;html=1;aspect=fixed;container=0;" vertex="1" parent="1">
          <mxGeometry x="668.7765853658537" y="225.88235294117646" width="23.414634146341466" height="23.414634146341466" as="geometry" />
        </mxCell>
        <mxCell id="2LjjfEzarAYx0yll2Rhc-29" value="" style="whiteSpace=wrap;html=1;aspect=fixed;container=0;" vertex="1" parent="1">
          <mxGeometry x="645.3658536585366" y="225.88235294117646" width="23.414634146341466" height="23.414634146341466" as="geometry" />
        </mxCell>
        <mxCell id="2LjjfEzarAYx0yll2Rhc-30" style="edgeStyle=orthogonalEdgeStyle;rounded=0;orthogonalLoop=1;jettySize=auto;html=1;entryX=0.5;entryY=0;entryDx=0;entryDy=0;" edge="1" parent="1" source="2LjjfEzarAYx0yll2Rhc-31" target="2LjjfEzarAYx0yll2Rhc-33">
          <mxGeometry relative="1" as="geometry" />
        </mxCell>
        <mxCell id="2LjjfEzarAYx0yll2Rhc-31" value="&lt;b&gt;Dropout (0.5)&lt;br&gt;&lt;/b&gt;" style="rounded=1;whiteSpace=wrap;html=1;fontSize=20;rotation=-90;" vertex="1" parent="1">
          <mxGeometry x="996.59" y="280" width="220" height="60" as="geometry" />
        </mxCell>
        <mxCell id="2LjjfEzarAYx0yll2Rhc-32" style="edgeStyle=orthogonalEdgeStyle;rounded=0;orthogonalLoop=1;jettySize=auto;html=1;" edge="1" parent="1" source="2LjjfEzarAYx0yll2Rhc-33" target="2LjjfEzarAYx0yll2Rhc-34">
          <mxGeometry relative="1" as="geometry" />
        </mxCell>
        <mxCell id="2LjjfEzarAYx0yll2Rhc-33" value="&lt;b&gt;Flatten&lt;br&gt;&lt;/b&gt;" style="rounded=1;whiteSpace=wrap;html=1;fontSize=20;rotation=-90;" vertex="1" parent="1">
          <mxGeometry x="1086.59" y="280" width="220" height="60" as="geometry" />
        </mxCell>
        <mxCell id="2LjjfEzarAYx0yll2Rhc-34" value="&lt;b&gt;Dense (5 class)&lt;br&gt;&lt;/b&gt;" style="rounded=1;whiteSpace=wrap;html=1;fontSize=20;rotation=-90;" vertex="1" parent="1">
          <mxGeometry x="1176.59" y="280" width="220" height="60" as="geometry" />
        </mxCell>
        <mxCell id="2LjjfEzarAYx0yll2Rhc-59" value="" style="shape=curlyBracket;whiteSpace=wrap;html=1;rounded=1;labelPosition=left;verticalLabelPosition=middle;align=right;verticalAlign=middle;rotation=-90;size=0.5;fontStyle=0;fontSize=22;strokeWidth=3;" vertex="1" parent="1">
          <mxGeometry x="665" y="130" width="20" height="680" as="geometry" />
        </mxCell>
        <mxCell id="2LjjfEzarAYx0yll2Rhc-60" value="&lt;b&gt;&lt;font style=&quot;font-size: 16px;&quot;&gt;Feature Extraction&lt;/font&gt;&lt;/b&gt;" style="text;html=1;align=center;verticalAlign=middle;resizable=0;points=[];autosize=1;strokeColor=none;fillColor=none;" vertex="1" parent="1">
          <mxGeometry x="605" y="480" width="160" height="30" as="geometry" />
        </mxCell>
        <mxCell id="2LjjfEzarAYx0yll2Rhc-63" value="" style="shape=curlyBracket;whiteSpace=wrap;html=1;rounded=1;labelPosition=left;verticalLabelPosition=middle;align=right;verticalAlign=middle;rotation=-90;size=0.5;fontStyle=0;fontSize=22;strokeWidth=3;" vertex="1" parent="1">
          <mxGeometry x="1184.09" y="336.25" width="20" height="265" as="geometry" />
        </mxCell>
        <mxCell id="2LjjfEzarAYx0yll2Rhc-64" value="&lt;b&gt;&lt;font style=&quot;font-size: 16px;&quot;&gt;Classification&lt;/font&gt;&lt;/b&gt;" style="text;html=1;align=center;verticalAlign=middle;resizable=0;points=[];autosize=1;strokeColor=none;fillColor=none;" vertex="1" parent="1">
          <mxGeometry x="1129.09" y="478.75" width="130" height="30" as="geometry" />
        </mxCell>
      </root>
    </mxGraphModel>
  </diagram>
</mxfile>
